<region> lovel=1 hivel=14 amp_velcurve_14=1 sample=../samples/kicks/kd14bop/snare_on/opn/kd14wbop_opn_039x.wav
<region> lovel=15 hivel=28 amp_velcurve_28=1 sample=../samples/kicks/kd14bop/snare_on/opn/kd14wbop_opn_040x.wav
<region> lovel=29 hivel=42 amp_velcurve_42=1 sample=../samples/kicks/kd14bop/snare_on/opn/kd14wbop_opn_041x.wav
<region> lovel=43 hivel=56 amp_velcurve_56=1 sample=../samples/kicks/kd14bop/snare_on/opn/kd14wbop_opn_042x.wav
<region> lovel=57 hivel=70 amp_velcurve_70=1 sample=../samples/kicks/kd14bop/snare_on/opn/kd14wbop_opn_043x.wav
<region> lovel=71 hivel=84 amp_velcurve_84=1 sample=../samples/kicks/kd14bop/snare_on/opn/kd14wbop_opn_045x.wav
<region> lovel=85 hivel=98 amp_velcurve_98=1 sample=../samples/kicks/kd14bop/snare_on/opn/kd14wbop_opn_048x.wav
<region> lovel=99 hivel=112 amp_velcurve_112=1 sample=../samples/kicks/kd14bop/snare_on/opn/kd14wbop_opn_049x.wav
<region> lovel=113 hivel=127 amp_velcurve_127=1 sample=../samples/kicks/kd14bop/snare_on/opn/kd14wbop_opn_050x.wav
